<svg width="14" height="9" viewBox="0 0 14 9" fill="none" xmlns="http://www.w3.org/2000/svg">
<path d="M13.7647 3.26252H12.3529H10.9412V1.85443V0.438993H12.3529H13.7647V1.85443L13.7647 3.26252ZM12 5.02723L10.5882 5.02723H9.17647V3.61914V2.2037H10.5882H12V3.61914V5.02723ZM10.2353 6.79193H8.82353H7.41176V5.38385V3.9684H8.82353H10.2353V5.38385V6.79193ZM8.47059 8.55664L7.05882 8.55664H5.64706V7.14855L5.64706 5.73311L7.05882 5.73311H8.47059L8.47059 7.14855V8.55664ZM6.70588 6.79193L5.29412 6.79193H3.88235V5.38385L3.88235 3.9684H5.29412L6.70588 3.9684V5.38385V6.79193ZM4.94118 5.02723H3.52941L2.11765 5.02723L2.11765 3.61914V2.2037H3.52941H4.94118V3.61914V5.02723ZM3.17647 3.26252L1.7647 3.26252H0.35294V1.85443L0.35294 0.438993H1.7647H3.17647L3.17647 1.85443V3.26252Z" fill="#EB6E2B"/>
</svg>
