<svg width="28" height="23" viewBox="0 0 28 23" fill="none" xmlns="http://www.w3.org/2000/svg">
<path d="M3.81818 19.1667C3.11818 19.1667 2.51915 18.9166 2.02109 18.4166C1.52218 17.9157 1.27273 17.3139 1.27273 16.6111V2.55556C1.27273 1.85278 1.52218 1.25094 2.02109 0.750055C2.51915 0.250018 3.11818 0 3.81818 0H24.1818C24.8818 0 25.4813 0.250018 25.9802 0.750055C26.4782 1.25094 26.7273 1.85278 26.7273 2.55556V16.6111C26.7273 17.3139 26.4782 17.9157 25.9802 18.4166C25.4813 18.9166 24.8818 19.1667 24.1818 19.1667H3.81818ZM1.27273 23C0.912121 23 0.610061 22.8773 0.366545 22.632C0.122182 22.3875 0 22.0843 0 21.7222C0 21.3602 0.122182 21.0569 0.366545 20.8124C0.610061 20.5671 0.912121 20.4444 1.27273 20.4444H26.7273C27.0879 20.4444 27.3899 20.5671 27.6335 20.8124C27.8778 21.0569 28 21.3602 28 21.7222C28 22.0843 27.8778 22.3875 27.6335 22.632C27.3899 22.8773 27.0879 23 26.7273 23H1.27273Z" fill="#FF5E0E"/>
</svg>
