<svg width="46" height="14" viewBox="0 0 46 14" fill="none" xmlns="http://www.w3.org/2000/svg">
<g id="Group 1">
<path id="Vector" fill-rule="evenodd" clip-rule="evenodd" d="M36.4005 4.8783H39.0003V6.1733C39.3748 5.4285 40.3352 4.7593 41.7779 4.7593C44.5436 4.7593 45.2002 6.2419 45.2002 8.9621V14H42.4002V9.5816C42.4002 8.0325 42.0257 7.1589 41.0723 7.1589C39.75 7.1589 39.2005 8.1004 39.2005 9.5809V14H36.4005V4.8783ZM31.5992 13.881H34.3992V4.7593H31.5992V13.881ZM34.8003 1.785C34.8004 2.01969 34.7539 2.25206 34.6634 2.46861C34.5729 2.68516 34.4403 2.88156 34.2732 3.0464C33.9347 3.38284 33.4765 3.57116 32.9992 3.57C32.5228 3.56968 32.0656 3.38184 31.7266 3.0471C31.5601 2.8817 31.428 2.68508 31.3376 2.4685C31.2473 2.25193 31.2006 2.01966 31.2002 1.785C31.2002 1.3111 31.3892 0.8575 31.7273 0.5229C32.066 0.187711 32.5234 -0.000209448 32.9999 1.75185e-07C33.4773 1.75185e-07 33.9351 0.1883 34.2732 0.5229C34.6106 0.8575 34.8003 1.3111 34.8003 1.785Z" fill="black"/>
<path id="Vector_2" d="M7.92002 0C8.7075 0.00209995 9.10719 0.00629985 9.45228 0.0160996L9.58808 0.0209995C9.74488 0.0265994 9.89957 0.0335992 10.0865 0.041999C10.8313 0.0769982 11.3394 0.194596 11.7853 0.367491C12.2473 0.545287 12.6365 0.786082 13.0257 1.17457C13.3816 1.52449 13.6571 1.94777 13.8328 2.41494C14.0057 2.86083 14.1233 3.36902 14.1583 4.1145C14.1667 4.3007 14.1737 4.4554 14.1793 4.61289L14.1835 4.74869C14.194 5.09308 14.1982 5.49277 14.1996 6.28025L14.2003 6.80244V7.71942C14.202 8.22999 14.1966 8.74056 14.1842 9.25098L14.18 9.38678C14.1744 9.54428 14.1674 9.69897 14.159 9.88517C14.124 10.6307 14.005 11.1381 13.8328 11.5847C13.6576 12.0522 13.3821 12.4755 13.0257 12.8251C12.6757 13.1809 12.2524 13.4563 11.7853 13.6322C11.3394 13.8051 10.8313 13.9227 10.0865 13.9577C9.92037 13.9655 9.75424 13.9725 9.58808 13.9787L9.45228 13.9829C9.10719 13.9927 8.7075 13.9976 7.92002 13.999L7.39783 13.9997H6.48155C5.97075 14.0014 5.45994 13.9961 4.94929 13.9836L4.81349 13.9794C4.64732 13.9731 4.48119 13.9658 4.3151 13.9577C3.57032 13.9227 3.06213 13.8051 2.61554 13.6322C2.14842 13.4567 1.72532 13.1813 1.37587 12.8251C1.01961 12.4753 0.743943 12.052 0.568091 11.5847C0.395195 11.1388 0.277597 10.6307 0.242598 9.88517C0.2348 9.71907 0.2278 9.55294 0.221599 9.38678L0.218099 9.25098C0.2052 8.74057 0.199366 8.23 0.200599 7.71942V6.28025C0.198646 5.76969 0.203779 5.25912 0.215999 4.74869L0.220899 4.61289C0.226499 4.4554 0.233498 4.3007 0.241898 4.1145C0.276897 3.36902 0.394495 2.86153 0.567391 2.41494C0.743166 1.94729 1.01938 1.52388 1.37657 1.17457C1.72593 0.818613 2.14875 0.543178 2.61554 0.367491C3.06213 0.194596 3.56962 0.0769982 4.3151 0.041999C4.5013 0.0335992 4.6567 0.0265994 4.81349 0.0209995L4.94929 0.0167996C5.45971 0.00436279 5.97028 -0.00100426 6.48085 0.000699933L7.92002 0ZM7.20044 3.49992C6.2722 3.49992 5.38198 3.86866 4.72562 4.52502C4.06926 5.18138 3.70052 6.0716 3.70052 6.99984C3.70052 7.92807 4.06926 8.81829 4.72562 9.47465C5.38198 10.131 6.2722 10.4998 7.20044 10.4998C8.12867 10.4998 9.01889 10.131 9.67525 9.47465C10.3316 8.81829 10.7004 7.92807 10.7004 6.99984C10.7004 6.0716 10.3316 5.18138 9.67525 4.52502C9.01889 3.86866 8.12867 3.49992 7.20044 3.49992ZM7.20044 4.89989C7.47621 4.89984 7.74928 4.95411 8.00408 5.0596C8.25887 5.16509 8.4904 5.31973 8.68543 5.5147C8.88046 5.70967 9.03518 5.94114 9.14075 6.1959C9.24633 6.45066 9.30069 6.72372 9.30074 6.99949C9.30078 7.27526 9.24651 7.54833 9.14102 7.80313C9.03553 8.05793 8.88089 8.28945 8.68592 8.48448C8.49096 8.67951 8.25949 8.83423 8.00473 8.9398C7.74997 9.04538 7.47691 9.09974 7.20114 9.09979C6.64419 9.09979 6.11006 8.87854 5.71625 8.48473C5.32243 8.09091 5.10118 7.55678 5.10118 6.99984C5.10118 6.44289 5.32243 5.90876 5.71625 5.51495C6.11006 5.12113 6.64419 4.89989 7.20114 4.89989M10.876 2.44994C10.644 2.44994 10.4214 2.54213 10.2573 2.70622C10.0933 2.87031 10.0011 3.09286 10.0011 3.32492C10.0011 3.55698 10.0933 3.77954 10.2573 3.94363C10.4214 4.10772 10.644 4.1999 10.876 4.1999C11.1081 4.1999 11.3307 4.10772 11.4948 3.94363C11.6588 3.77954 11.751 3.55698 11.751 3.32492C11.751 3.09286 11.6588 2.87031 11.4948 2.70622C11.3307 2.54213 11.1081 2.44994 10.876 2.44994Z" fill="black"/>
</g>
</svg>
