<svg width="33" height="33" viewBox="0 0 33 33" fill="none" xmlns="http://www.w3.org/2000/svg">
<path id="Vector" d="M6.59719 16.2983L2.71403 14.6281C2.15731 14.4054 1.83051 14.0018 1.73364 13.4172C1.63566 12.8327 1.79544 12.3316 2.21298 11.9141L7.47403 6.65301C7.86373 6.2633 8.32303 5.98494 8.85192 5.81792C9.38081 5.65091 9.92361 5.62307 10.4803 5.73441L12.6516 6.19371C11.1762 7.94739 10.0004 9.5413 9.12416 10.9754C8.24676 12.4084 7.40444 14.1827 6.59719 16.2983ZM31.1487 0.0140705C31.3714 0.0140705 31.5941 0.0697428 31.8168 0.181088C32.0395 0.292433 32.2344 0.431614 32.4014 0.598631C32.5684 0.765649 32.7076 0.960502 32.8189 1.18319C32.9303 1.40588 32.9859 1.62857 32.9859 1.85126C33.0973 4.44003 32.5478 7.12623 31.3375 9.90985C30.126 12.6935 28.4208 15.1848 26.2217 17.3839C24.7186 18.887 23.2711 20.0907 21.8793 20.9948C20.4875 21.9 18.8451 22.7563 16.9523 23.5635C16.5904 23.7027 16.2218 23.7723 15.8466 23.7723C15.4703 23.7723 15.1429 23.6331 14.8645 23.3547L9.64525 18.1355C9.36689 17.8571 9.22771 17.5297 9.22771 17.1534C9.22771 16.7782 9.2973 16.4096 9.43648 16.0477C10.2437 14.1827 11.1 12.5471 12.0052 11.1408C12.9093 9.73559 14.113 8.28143 15.6161 6.77827C17.8152 4.57921 20.3065 2.87396 23.0902 1.66253C25.8738 0.452213 28.56 -0.0972744 31.1487 0.0140705ZM20.5431 12.4569C21.1834 13.0971 21.97 13.4172 22.9031 13.4172C23.835 13.4172 24.6211 13.0971 25.2614 12.4569C25.9016 11.8166 26.2217 11.03 26.2217 10.0969C26.2217 9.16495 25.9016 8.37886 25.2614 7.73862C24.6211 7.09839 23.835 6.77827 22.9031 6.77827C21.97 6.77827 21.1834 7.09839 20.5431 7.73862C19.9029 8.37886 19.5828 9.16495 19.5828 10.0969C19.5828 11.03 19.9029 11.8166 20.5431 12.4569ZM16.7017 26.4028C18.8173 25.5956 20.5988 24.7538 22.0463 23.8775C23.4938 23.0001 25.0944 21.8238 26.848 20.3484L27.2656 22.5197C27.3769 23.0764 27.3491 23.6264 27.1821 24.1698C27.0151 24.712 26.7367 25.178 26.347 25.5677L21.0859 30.8288C20.6684 31.2463 20.1673 31.3994 19.5828 31.2881C18.9982 31.1767 18.5946 30.8427 18.3719 30.286L16.7017 26.4028ZM3.13158 22.8119C4.10584 21.8377 5.28888 21.3433 6.68069 21.3288C8.07251 21.3155 9.25555 21.7959 10.2298 22.7702C11.2041 23.7445 11.6912 24.9275 11.6912 26.3193C11.6912 27.7111 11.2041 28.8942 10.2298 29.8684C9.53391 30.5643 8.37202 31.1628 6.74416 31.6639C5.11519 32.1649 2.86713 32.6103 0 33C0.389707 30.1329 0.835087 27.8921 1.33614 26.2775C1.83719 24.663 2.43567 23.5078 3.13158 22.8119Z" fill="#FF5E0E"/>
</svg>
